# xmcd
#
# Track frame offsets:
#	183
#	14695
#	25083
#	35358
#	60108
#	73683
#	91608
#	111708
#	133345
#	154383
#	165595
#	186333
#	224283
#	248395
#	279108
#	291258
#	300070
#	311883
#
# Disc length: 4272 seconds
#
# Revision: 1
# Processed by: cddbd v1.5.1PL0 Copyright (c) Steve Scherf et al.
# Submitted via: CDex 1.50Beta5
#
DISCID=f610ae12
DTITLE=諏訪内晶子 - Dvorak,Janacek,Brahms/Akiko Suwanai /Boris Berezovsky
DYEAR=1900
DGENRE=
TTITLE0=4Romantic Peaces,Op.75:1
TTITLE1=4Romantic Peaces,Op.75:2
TTITLE2=4Romantic Peaces,Op.75:3
TTITLE3=4Romantic Peaces,Op.75:4
TTITLE4=Savonic Dances(Arr.Fritz Kreisler)
TTITLE5=Savonic Dances(Arr.Fritz Kreisler)
TTITLE6=Savonic Dances(Arr.Fritz Kreisler)
TTITLE7=Sonata for Violin and Piano :I
TTITLE8=Sonata for Violin and Piano :II
TTITLE9=Sonata for Violin and Piano :III
TTITLE10=Sonata for Violin and Piano :IV
TTITLE11=Sonata in E flat for Violin and Piano, Op.120 No.2 :I
TTITLE12=Sonata in E flat for Violin and Piano, Op.120 No.2 :II
TTITLE13=Sonata in E flat for Violin and Piano, Op.120 No.2 :III
TTITLE14=Hungarian Dances (Arr.Joseph Joachim)
TTITLE15=Hungarian Dances (Arr.Joseph Joachim)
TTITLE16=Hungarian Dances (Arr.Joseph Joachim)
TTITLE17=Hungarian Dances (Arr.Joseph Joachim)
EXTD=
EXTT0=
EXTT1=
EXTT2=
EXTT3=
EXTT4=
EXTT5=
EXTT6=
EXTT7=
EXTT8=
EXTT9=
EXTT10=
EXTT11=
EXTT12=
EXTT13=
EXTT14=
EXTT15=
EXTT16=
EXTT17=
PLAYORDER=
